<?xml version="1.0" standalone="no"?>
<!DOCTYPE svg PUBLIC "-//W3C//DTD SVG 20010904//EN"
 "http://www.w3.org/TR/2001/REC-SVG-20010904/DTD/svg10.dtd">
<svg version="1.0" xmlns="http://www.w3.org/2000/svg"
 width="300.000000pt" height="276.000000pt" viewBox="0 0 300.000000 276.000000"
 preserveAspectRatio="xMidYMid meet">
<metadata>
Created by potrace 1.10, written by Peter Selinger 2001-2011
</metadata>
<g transform="translate(0.000000,276.000000) scale(0.100000,-0.100000)"
fill="#000000" stroke="none">
<path d="M820 2152 c-45 -22 -67 -63 -85 -155 -35 -186 -28 -400 19 -539 23
-68 23 -69 4 -123 -10 -30 -21 -88 -25 -129 -6 -72 -7 -75 -49 -111 -24 -20
-44 -44 -44 -53 0 -9 23 -32 50 -51 31 -21 50 -42 50 -53 0 -37 52 -129 101
-177 56 -55 143 -101 244 -127 58 -16 108 -19 295 -19 204 0 232 2 303 23 108
31 184 72 239 129 45 46 98 140 98 174 0 8 20 30 45 48 24 17 47 36 50 40 10
16 -7 40 -47 70 -39 29 -40 32 -44 98 -3 37 -15 98 -28 135 -19 57 -20 71 -10
90 67 120 65 583 -1 685 -22 33 -74 63 -109 63 -50 0 -118 -40 -192 -114 -81
-82 -144 -174 -180 -266 l-25 -65 -103 0 -103 0 -18 50 c-52 148 -198 325
-310 376 -50 23 -81 24 -125 1z m144 -71 c98 -68 204 -215 252 -348 15 -42 28
-67 36 -64 34 10 197 12 229 3 36 -10 37 -9 43 21 21 103 153 304 245 371 121
89 174 66 200 -84 31 -187 22 -390 -24 -518 l-25 -68 22 -55 c14 -36 22 -87
26 -151 3 -72 8 -98 18 -98 7 0 25 -11 41 -24 l28 -24 -38 -22 c-23 -14 -39
-32 -43 -49 -33 -148 -137 -242 -321 -288 -98 -25 -447 -25 -548 0 -181 46
-289 142 -320 284 -3 18 -14 35 -23 38 -9 3 -28 14 -41 24 l-24 19 40 23 40
23 6 82 c3 45 17 114 30 153 20 62 21 73 10 96 -45 86 -70 280 -54 431 16 153
29 204 63 237 35 36 67 33 132 -12z"/>
<path d="M1835 1940 c27 -174 31 -287 15 -384 -11 -65 -8 -79 10 -46 27 51 16
384 -15 438 l-16 27 6 -35z"/>
<path d="M965 1937 c83 -61 137 -124 172 -196 34 -71 35 -75 18 -88 -17 -11
-17 -13 -2 -13 9 0 19 11 23 25 14 57 -71 198 -156 258 -57 40 -108 53 -55 14z"/>
<path d="M1760 1939 c-55 -33 -120 -108 -151 -173 -29 -62 -38 -116 -18 -116
5 0 7 5 4 10 -10 17 49 133 91 180 22 24 61 61 87 82 52 41 44 51 -13 17z"/>
<path d="M900 1893 c0 -55 5 -54 14 5 4 26 2 42 -4 42 -5 0 -10 -21 -10 -47z"/>
<path d="M956 1868 c4 -13 17 -39 29 -58 13 -20 32 -57 44 -82 19 -42 41 -70
41 -52 0 11 -110 214 -116 214 -3 0 -2 -10 2 -22z"/>
<path d="M1740 1780 c-28 -56 -49 -104 -46 -107 5 -5 25 30 74 131 52 109 29
89 -28 -24z"/>
<path d="M892 1783 c-1 -23 -5 -50 -8 -60 -5 -14 -4 -15 5 -7 8 7 11 30 8 60
-3 48 -3 48 -5 7z"/>
<path d="M888 1638 c-2 -13 -1 -39 3 -58 5 -28 6 -24 6 23 1 60 -2 72 -9 35z"/>
<path d="M1306 1641 c-3 -5 1 -28 10 -52 25 -73 29 -159 9 -220 -14 -42 -32
-67 -80 -114 -35 -33 -66 -71 -70 -85 -7 -24 -6 -24 21 6 16 17 48 46 71 63
64 48 94 118 94 217 0 104 -34 219 -55 185z"/>
<path d="M1537 1579 c23 -68 49 -282 38 -318 -2 -9 0 -32 4 -51 l8 -35 8 39
c14 68 -2 273 -26 346 -22 66 -35 90 -49 90 -4 0 3 -32 17 -71z"/>
<path d="M1053 1609 c-42 -30 -53 -52 -33 -64 14 -9 122 64 117 78 -7 22 -42
16 -84 -14z"/>
<path d="M1620 1621 c0 -11 19 -30 51 -50 56 -35 65 -37 72 -18 7 19 -1 29
-48 60 -47 32 -75 35 -75 8z"/>
<path d="M1756 1542 c-5 -8 31 -72 41 -72 2 0 1 5 -3 11 -4 8 1 9 17 4 22 -7
21 -4 -10 29 -38 40 -38 39 -45 28z"/>
<path d="M1030 1182 c-34 -35 -37 -53 -13 -77 33 -34 133 4 133 49 0 29 -17
44 -58 52 -26 5 -36 1 -62 -24z m67 -29 c4 -12 -34 -29 -44 -19 -3 3 -3 12 1
21 7 18 37 17 43 -2z"/>
<path d="M1633 1198 c-25 -12 -36 -37 -28 -60 8 -21 76 -51 105 -46 52 7 52
76 0 103 -33 17 -46 18 -77 3z m70 -38 c6 0 4 -7 -5 -17 -14 -13 -20 -14 -32
-4 -19 16 -10 35 11 27 8 -3 20 -6 26 -6z"/>
<path d="M1310 1103 c-28 -14 -36 -25 -38 -51 -4 -38 18 -77 48 -87 28 -9 25
-19 -14 -58 -53 -53 -115 -55 -156 -4 -18 21 -20 21 -36 5 -16 -16 -16 -18 -1
-42 23 -35 51 -48 102 -48 39 0 45 -3 56 -30 15 -38 63 -68 108 -68 45 0 97
33 110 70 9 27 14 30 55 30 50 0 106 37 106 71 0 32 -29 35 -53 6 -38 -45 -97
-40 -150 14 l-41 41 31 14 c31 15 53 50 53 83 0 55 -113 89 -180 54z m120 -43
c12 -12 18 -26 13 -33 -12 -21 -58 -67 -66 -67 -14 0 -66 65 -67 83 0 37 88
49 120 17z m20 -236 c0 -19 -46 -54 -72 -54 -28 0 -68 30 -68 51 0 6 15 28 33
48 l32 37 38 -37 c20 -20 37 -40 37 -45z"/>
<path d="M1131 1078 c-37 -67 -113 -93 -241 -83 -99 7 -102 -11 -4 -24 130
-19 240 24 259 102 9 33 3 35 -14 5z"/>
<path d="M1600 1094 c0 -25 49 -81 89 -103 36 -20 57 -24 125 -23 44 0 95 6
111 13 l30 12 -35 7 c-21 4 -38 2 -44 -5 -11 -14 -152 0 -180 19 -12 7 -38 31
-58 52 -21 21 -38 34 -38 28z"/>
</g>
</svg>
